<svg width="309" height="83" viewBox="0 0 309 83" fill="none" xmlns="http://www.w3.org/2000/svg">
<g filter="url(#filter0_d)">
<path d="M94.5266 7.05085C94.2235 6.77866 93.8069 6.62423 93.3804 6.62423C92.9524 6.62423 92.5358 6.77866 92.2325 7.05085C91.9311 7.32143 91.7591 7.69564 91.7591 8.0799C91.7591 8.4627 91.9311 8.83837 92.2325 9.1091C92.5356 9.37982 92.9522 9.53556 93.3804 9.53556C93.8067 9.53556 94.2235 9.37997 94.5266 9.1091C94.8282 8.83837 95 8.46285 95 8.0799C95 7.69564 94.8282 7.32143 94.5266 7.05085Z" fill="url(#paint0_linear)"/>
<path d="M91.7552 20.8962C91.3126 20.1972 90.3225 19.953 89.5445 20.3504C88.7662 20.7477 88.494 21.6365 88.9367 22.3353C93.7524 29.9386 92.2986 39.5741 85.4011 45.7669L84.1719 46.8707C83.8749 46.171 83.4148 45.5147 82.7879 44.952L66.1302 29.9958C67.2196 29.5146 68.2261 28.8726 69.1098 28.0792L72.3046 25.2105C72.9377 24.6421 72.9377 23.7203 72.3046 23.152C71.6714 22.5836 70.6451 22.5836 70.0117 23.152L66.8169 26.0206C65.3159 27.3682 63.3205 28.1103 61.198 28.1103H54.8114C54.3815 28.1103 53.9692 28.2637 53.6649 28.5366L48.7757 32.9265C47.3238 34.2302 44.9614 34.2302 43.5096 32.9265C42.0576 31.6229 42.0576 29.5018 43.5096 28.1982L54.6718 18.1763C61.4932 12.0514 72.1427 10.7045 80.5683 14.9008C81.3513 15.2904 82.3382 15.037 82.7725 14.3338C83.2068 13.6308 82.9241 12.7447 82.1411 12.3548C77.4937 10.0406 72.0183 9.11448 66.7225 9.74778C61.7665 10.3403 57.2302 12.2035 53.5117 15.16C48.9436 11.5239 43.1283 9.53556 36.9714 9.53556C30.3012 9.53556 24.0305 11.8677 19.3139 16.1024C14.5973 20.3371 12 25.9678 12 31.9565C12 37.9454 14.5975 43.5757 19.3139 47.8105L19.9249 48.3591C20.0312 48.4544 20.1493 48.5324 20.2739 48.5957C20.3824 49.8551 20.97 51.087 22.0404 52.0479C23.2318 53.1175 24.7958 53.6519 26.3603 53.6519C26.4415 53.6519 26.5229 53.6496 26.6041 53.6467C26.6009 53.7203 26.5981 53.794 26.5981 53.8681C26.5981 55.3332 27.2336 56.7107 28.3875 57.7467C29.5788 58.8163 31.1429 59.3509 32.7074 59.3507C32.7886 59.3507 32.87 59.3484 32.9512 59.3455C32.948 59.4191 32.9452 59.4928 32.9452 59.5669C32.9452 61.032 33.5807 62.4095 34.7347 63.4455C35.9259 64.5149 37.4903 65.0495 39.0546 65.0495C39.1368 65.0495 39.219 65.0472 39.3012 65.0443C39.2354 66.5218 39.8282 68.0189 41.0818 69.1446C42.2359 70.1807 43.7701 70.7512 45.4017 70.7512C47.0337 70.7512 48.5679 70.1807 49.7216 69.1446L51.9874 67.1101L55.0479 69.8577C56.2018 70.8939 57.736 71.4644 59.3678 71.4644C60.9996 71.4644 62.5338 70.8939 63.6877 69.8578C64.9564 68.7187 65.549 67.199 65.4664 65.7042C65.5682 65.7087 65.6703 65.7113 65.7723 65.7113C67.3368 65.7113 68.9015 65.1767 70.0925 64.1072C71.3454 62.9822 71.9383 61.4863 71.8731 60.0095C71.9551 60.0124 72.0371 60.0149 72.1197 60.0149C73.7514 60.0149 75.2857 59.4443 76.4396 58.4083C77.6925 57.2833 78.2853 55.7873 78.2202 54.3106C78.3022 54.3135 78.3842 54.3159 78.4667 54.3159C80.0985 54.3159 81.6327 53.7454 82.7866 52.7093C83.3727 52.1832 83.8139 51.5753 84.1116 50.9266C84.2693 50.8576 84.4176 50.7658 84.5488 50.6482L87.6927 47.8253C95.62 40.7092 97.2901 29.6353 91.7552 20.8962ZM26.3605 50.7432C25.5947 50.7432 24.8747 50.4755 24.3331 49.9893C23.7917 49.5031 23.4934 48.8567 23.4934 48.1691C23.4934 47.4817 23.7915 46.8351 24.3331 46.349L27.1269 43.8406C27.6684 43.3543 28.3885 43.0866 29.1543 43.0866C29.9199 43.0866 30.64 43.3543 31.1815 43.8406C32.2994 44.8443 32.2994 46.4772 31.1815 47.4808L28.3877 49.9894C27.8462 50.4754 27.1264 50.7432 26.3605 50.7432ZM30.6807 55.6883C30.1391 55.2022 29.841 54.5557 29.841 53.8682C29.841 53.1806 30.1391 52.5342 30.6807 52.0481L33.4747 49.5395C33.4747 49.5395 33.4747 49.5395 33.4747 49.5394C34.0161 49.0532 34.736 48.7854 35.5018 48.7854C36.2675 48.7854 36.9876 49.0531 37.529 49.5394C38.6469 50.5431 38.6469 52.176 37.529 53.1796L34.7352 55.6882C33.6172 56.6918 31.798 56.6918 30.6807 55.6883ZM37.0278 61.3871C36.4862 60.901 36.1881 60.2545 36.1881 59.567C36.1881 58.8794 36.4862 58.233 37.0278 57.7469L39.8217 55.2383C39.8217 55.2383 39.8217 55.2383 39.8217 55.2382C40.3632 54.752 41.0831 54.4842 41.8489 54.4842C42.6147 54.4842 43.3347 54.7519 43.8761 55.2382C44.994 56.242 44.994 57.875 43.8761 58.8786L41.0821 61.3871C39.9644 62.3909 38.1457 62.3909 37.0278 61.3871ZM50.2233 64.5776L47.4294 67.0864C46.8879 67.5725 46.168 67.8403 45.4022 67.8403C44.6366 67.8403 43.9165 67.5727 43.375 67.0864C42.2571 66.0825 42.2571 64.4496 43.375 63.446L46.169 60.9374C46.169 60.9374 46.169 60.9374 46.169 60.9372C46.7104 60.4511 47.4304 60.1833 48.1962 60.1833C48.9618 60.1833 49.6819 60.451 50.2233 60.9372C50.765 61.4234 51.0631 62.0699 51.0631 62.7574C51.0632 63.4452 50.765 64.0915 50.2233 64.5776ZM80.495 50.6508C79.9536 51.1371 79.2335 51.4048 78.4679 51.4048C77.7021 51.4048 76.9821 51.1371 76.4407 50.6508L69.6925 44.5919C69.6922 44.5916 69.6921 44.5915 69.6917 44.5912L63.3451 38.8928C62.7119 38.3244 61.6856 38.3244 61.0523 38.8928C60.4192 39.4612 60.4192 40.383 61.0523 40.9514L74.1478 52.709C75.2657 53.7129 75.2657 55.3459 74.1478 56.3494C73.6064 56.8357 72.8863 57.1034 72.1206 57.1034C71.3548 57.1034 70.6349 56.8357 70.0934 56.3494L56.9979 44.5916C56.3647 44.0234 55.3384 44.0234 54.705 44.5916C54.072 45.16 54.072 46.0818 54.705 46.6503L61.051 52.3479C61.0515 52.3484 61.0519 52.3489 61.0524 52.3494L67.8007 58.4081C68.9186 59.412 68.9186 61.0451 67.8009 62.0487C66.6828 63.0524 64.8638 63.0524 63.7464 62.0487L56.9981 55.9896C56.8732 55.8777 56.733 55.7886 56.5837 55.7208L54.659 53.9927C54.0258 53.4244 52.9995 53.4244 52.3661 53.9927C51.7331 54.561 51.7331 55.4828 52.3661 56.0513L61.3959 64.1586C62.5138 65.1625 62.5138 66.7954 61.3959 67.799C60.8545 68.2853 60.1344 68.553 59.3688 68.553C58.603 68.553 57.883 68.2853 57.3416 67.799L53.9055 64.714C54.1673 64.0973 54.3057 63.4369 54.3057 62.7572C54.3057 61.2921 53.6703 59.9146 52.5164 58.8786C51.3623 57.8425 49.8281 57.272 48.1965 57.272C48.114 57.272 48.0319 57.2744 47.9499 57.2773C48.0149 55.8006 47.4223 54.3046 46.1693 53.1796C45.0152 52.1436 43.481 51.573 41.8494 51.573C41.7669 51.573 41.6849 51.5755 41.6028 51.5784C41.668 50.1016 41.0752 48.6056 39.8222 47.4807C38.6682 46.4446 37.134 45.8741 35.5023 45.8741C35.4198 45.8741 35.3378 45.8765 35.2558 45.8795C35.3209 44.4027 34.7281 42.9067 33.4751 41.7817C31.0931 39.643 27.2169 39.6431 24.8349 41.7817L22.0411 44.2902C21.6886 44.6066 21.3899 44.9529 21.1415 45.3194C17.3334 41.6877 15.2432 36.9664 15.2432 31.9562C15.2432 26.745 17.5033 21.8456 21.6076 18.1608C25.7116 14.476 31.1685 12.4466 36.9723 12.4466C42.2467 12.4466 47.2342 14.1228 51.1803 17.1942L41.2175 26.1394C39.9018 27.3208 39.1772 28.8915 39.1772 30.5621C39.1772 32.2329 39.9018 33.8036 41.2175 34.985C42.5757 36.2043 44.3597 36.814 46.1435 36.814C47.9274 36.814 49.7114 36.2045 51.0696 34.985L55.4841 31.0214H61.199C61.6709 31.0214 62.1376 30.9924 62.5986 30.941L80.496 47.0101C81.6128 48.0143 81.6128 49.6474 80.495 50.6508Z" fill="url(#paint1_linear)"/>
<path d="M54.6471 71.891C54.3441 71.6189 53.9273 71.4644 53.5008 71.4644C53.0728 71.4644 52.6561 71.6189 52.3529 71.891C52.0515 72.1616 51.8795 72.5358 51.8795 72.9201C51.8795 73.3029 52.0515 73.6784 52.3529 73.9493C52.6561 74.22 53.0727 74.3758 53.5008 74.3758C53.9272 74.3758 54.3439 74.2202 54.6471 73.9493C54.9486 73.6786 55.1204 73.303 55.1204 72.9201C55.1206 72.5358 54.9488 72.1616 54.6471 71.891Z" fill="url(#paint2_linear)"/>
</g>
<path d="M108.524 42.288V61.056H121.512V63.164C121.512 63.8893 121.376 64.388 121.104 64.66C120.877 64.8867 120.401 65 119.676 65H103.084V19.236C103.084 18.5107 103.197 18.0347 103.424 17.808C103.696 17.536 104.194 17.4 104.92 17.4H121.512V19.508C121.512 20.2333 121.398 20.732 121.172 21.004C120.99 21.2307 120.537 21.344 119.812 21.344H108.524V38.344H119.472V40.452C119.472 41.1773 119.358 41.676 119.132 41.948C118.95 42.1747 118.497 42.288 117.772 42.288H108.524ZM145.017 30.456C147.375 30.456 149.029 30.9547 149.981 31.952C150.979 32.904 151.477 34.5587 151.477 36.916V63.164C151.477 63.8893 151.341 64.388 151.069 64.66C150.843 64.8867 150.367 65 149.641 65H146.037V38.276C146.037 36.8707 145.856 35.8733 145.493 35.284C145.131 34.6947 144.247 34.4 142.841 34.4H134.477V63.164C134.477 63.8893 134.341 64.388 134.069 64.66C133.843 64.8867 133.367 65 132.641 65H129.037V32.292C129.037 31.5667 129.151 31.0907 129.377 30.864C129.649 30.592 130.148 30.456 130.873 30.456H134.477V34.4C134.749 33.0853 135.157 32.1107 135.701 31.476C136.291 30.796 137.243 30.456 138.557 30.456H145.017ZM178.676 58.54C178.676 60.8973 178.177 62.5747 177.18 63.572C176.228 64.524 174.573 65 172.216 65H163.92C162.605 65 161.653 64.6827 161.064 64.048C160.52 63.368 160.112 62.3707 159.84 61.056H170.04C171.445 61.056 172.329 60.7613 172.692 60.172C173.055 59.5827 173.236 58.5853 173.236 57.18V46.164C173.236 44.7587 173.032 43.7613 172.624 43.172C172.261 42.5827 171.309 42.288 169.768 42.288H166.3C163.943 42.288 162.265 41.812 161.268 40.86C160.316 39.8627 159.84 38.1853 159.84 35.828V23.86C159.84 21.5027 160.316 19.848 161.268 18.896C162.265 17.8987 163.943 17.4 166.3 17.4H174.392C175.707 17.4 176.636 17.74 177.18 18.42C177.769 19.0547 178.2 20.0293 178.472 21.344H168.476C167.071 21.344 166.187 21.6387 165.824 22.228C165.461 22.8173 165.28 23.8147 165.28 25.22V34.468C165.28 35.8733 165.461 36.8707 165.824 37.46C166.187 38.0493 167.071 38.344 168.476 38.344H172.216C174.573 38.344 176.228 38.8427 177.18 39.84C178.177 40.792 178.676 42.4467 178.676 44.804V58.54ZM203.189 30.456C205.546 30.456 207.201 30.9547 208.153 31.952C209.15 32.904 209.649 34.5587 209.649 36.916V58.54C209.649 60.8973 209.15 62.5747 208.153 63.572C207.201 64.524 205.546 65 203.189 65H196.729C195.414 65 194.462 64.6827 193.873 64.048C193.329 63.368 192.921 62.3707 192.649 61.056V76.832C192.649 77.5573 192.513 78.0333 192.241 78.26C192.014 78.532 191.538 78.668 190.813 78.668H187.209V32.292C187.209 31.5667 187.322 31.0907 187.549 30.864C187.821 30.592 188.32 30.456 189.045 30.456H192.649V61.056H201.013C202.418 61.056 203.302 60.7613 203.665 60.172C204.028 59.5827 204.209 58.5853 204.209 57.18V38.276C204.209 36.8707 204.028 35.8733 203.665 35.284C203.302 34.6947 202.418 34.4 201.013 34.4H195.369V32.292C195.369 31.5667 195.46 31.0907 195.641 30.864C195.868 30.592 196.344 30.456 197.069 30.456H203.189ZM233.722 38.276C233.722 36.8707 233.54 35.8733 233.178 35.284C232.815 34.6947 231.931 34.4 230.526 34.4H218.762C219.034 33.0853 219.442 32.1107 219.986 31.476C220.575 30.796 221.527 30.456 222.842 30.456H232.702C235.059 30.456 236.714 30.9547 237.666 31.952C238.663 32.904 239.162 34.5587 239.162 36.916V65H235.558C234.832 65 234.334 64.8867 234.062 64.66C233.835 64.388 233.722 63.8893 233.722 63.164V38.276ZM223.862 65C221.504 65 219.827 64.524 218.83 63.572C217.878 62.5747 217.402 60.8973 217.402 58.54V51.06C217.402 48.7027 217.878 47.048 218.83 46.096C219.827 45.0987 221.504 44.6 223.862 44.6H229.642C230.956 44.6 231.886 44.94 232.43 45.62C233.019 46.2547 233.45 47.2293 233.722 48.544H226.038C224.632 48.544 223.748 48.8387 223.386 49.428C223.023 50.0173 222.842 51.0147 222.842 52.42V57.724C222.842 59.1293 223.091 60.036 223.59 60.444C224.134 60.852 225.108 61.056 226.514 61.056H231.002V63.164C231.002 63.8893 230.888 64.388 230.662 64.66C230.48 64.8867 230.027 65 229.302 65H223.862ZM263.135 30.456C263.86 30.456 264.313 30.592 264.495 30.864C264.721 31.0907 264.835 31.5667 264.835 32.292V34.4H256.471C255.065 34.4 254.181 34.6947 253.819 35.284C253.456 35.8733 253.275 36.8707 253.275 38.276V57.18C253.275 58.5853 253.456 59.5827 253.819 60.172C254.181 60.7613 255.065 61.056 256.471 61.056H264.835V63.164C264.835 63.8893 264.721 64.388 264.495 64.66C264.313 64.8867 263.86 65 263.135 65H254.295C251.937 65 250.26 64.524 249.263 63.572C248.311 62.5747 247.835 60.8973 247.835 58.54V36.916C247.835 34.5587 248.311 32.904 249.263 31.952C250.26 30.9547 251.937 30.456 254.295 30.456H263.135ZM290.435 61.056V63.164C290.435 63.8893 290.321 64.388 290.095 64.66C289.913 64.8867 289.46 65 288.735 65H278.467C276.109 65 274.432 64.524 273.435 63.572C272.483 62.5747 272.007 60.8973 272.007 58.54V36.916C272.007 34.5587 272.483 32.904 273.435 31.952C274.432 30.9547 276.109 30.456 278.467 30.456H285.947C288.304 30.456 289.959 30.9547 290.911 31.952C291.908 32.904 292.407 34.5587 292.407 36.916V44.532C292.407 46.8893 291.908 48.5667 290.911 49.564C289.959 50.516 288.304 50.992 285.947 50.992H281.867C281.141 50.992 280.665 50.8787 280.439 50.652C280.257 50.38 280.167 49.8813 280.167 49.156V47.048H284.111C285.516 47.048 286.4 46.7533 286.763 46.164C287.125 45.5747 287.307 44.5773 287.307 43.172V37.936C287.307 36.5307 287.08 35.6013 286.627 35.148C286.173 34.6493 285.244 34.4 283.839 34.4H280.915C279.419 34.4 278.467 34.672 278.059 35.216C277.651 35.7147 277.447 36.7347 277.447 38.276V57.18C277.447 58.5853 277.628 59.5827 277.991 60.172C278.353 60.7613 279.237 61.056 280.643 61.056H290.435Z" fill="url(#paint3_linear)"/>
<defs>
<filter id="filter0_d" x="8" y="0" width="91" height="89" filterUnits="userSpaceOnUse" color-interpolation-filters="sRGB">
<feFlood flood-opacity="0" result="BackgroundImageFix"/>
<feColorMatrix in="SourceAlpha" type="matrix" values="0 0 0 0 0 0 0 0 0 0 0 0 0 0 0 0 0 0 127 0"/>
<feOffset dy="4"/>
<feGaussianBlur stdDeviation="2"/>
<feColorMatrix type="matrix" values="0 0 0 0 0 0 0 0 0 0 0 0 0 0 0 0 0 0 0.25 0"/>
<feBlend mode="normal" in2="BackgroundImageFix" result="effect1_dropShadow"/>
<feBlend mode="normal" in="SourceGraphic" in2="effect1_dropShadow" result="shape"/>
</filter>
<linearGradient id="paint0_linear" x1="93.3795" y1="6.62423" x2="93.3795" y2="9.53556" gradientUnits="userSpaceOnUse">
<stop/>
<stop offset="1" stop-color="#F80909" stop-opacity="0.85"/>
</linearGradient>
<linearGradient id="paint1_linear" x1="23.7283" y1="20.2867" x2="65.8803" y2="43.4867" gradientUnits="userSpaceOnUse">
<stop stop-color="#060000"/>
<stop offset="1" stop-color="#F80909" stop-opacity="0.85"/>
</linearGradient>
<linearGradient id="paint2_linear" x1="53.5" y1="71.4644" x2="53.5" y2="74.3758" gradientUnits="userSpaceOnUse">
<stop/>
<stop offset="1" stop-color="#F80909" stop-opacity="0.85"/>
</linearGradient>
<linearGradient id="paint3_linear" x1="122" y1="43" x2="282" y2="43" gradientUnits="userSpaceOnUse">
<stop/>
<stop offset="1" stop-color="#FF0000" stop-opacity="0.88"/>
</linearGradient>
</defs>
</svg>
